<?xml version="1.0" encoding="utf-8"?>
<!-- Generator: Adobe Illustrator 23.0.1, SVG Export Plug-In . SVG Version: 6.00 Build 0)  -->
<svg version="1.1" id="Layer_1" xmlns="http://www.w3.org/2000/svg" xmlns:xlink="http://www.w3.org/1999/xlink" x="0px" y="0px"
	 width="28px" height="34px" viewBox="0 0 28 34" style="enable-background:new 0 0 28 34;" xml:space="preserve">
<style type="text/css">
	.st0{fill:#63D1BB;}
</style>
<path class="st0" d="M14.1,0L14,0L0.5,1.4V26L14,34l13.5-8V1.4L14.1,0z M25.7,25L14,32L2.3,25V14.9l11.7,6.9l0,1.3l-8-4.7l0,1.2
	l8,4.8l0,1.3l-8-4.8l0,1.2l8,4.8l8.1-4.8v-1.2h0v-0.4V20v-3.1l3.6-2.2L25.7,25L25.7,25z M25.7,13.4l-3.2,1.9L21,16.2L14,12l0,1.2
	l6,3.6l-0.1,0l-0.1,0.1L19,17.4l-5-3l0,1.2l3.9,2.3L17,18.6l0,0l-3-1.8l0,1.2l2,1.1l-2,1.2L2.3,13.6l11.6-7l0,0L25.7,13.4z
	 M25.7,12.2L13.9,5.3l0,0l0,0l0,0l0,0L2.3,12.2V3L14,1.8L25.8,3L25.7,12.2L25.7,12.2z"/>
</svg>
