<?xml version="1.0" encoding="utf-8"?>
<!-- Generator: Adobe Illustrator 23.0.1, SVG Export Plug-In . SVG Version: 6.00 Build 0)  -->
<svg version="1.1" id="Layer_1" xmlns="http://www.w3.org/2000/svg" xmlns:xlink="http://www.w3.org/1999/xlink" x="0px" y="0px"
	 width="18.3px" height="18.2px" viewBox="0 0 18.3 18.2" style="enable-background:new 0 0 18.3 18.2;" xml:space="preserve">
<style type="text/css">
	.st0{fill:#1D1D1B;}
</style>
<path class="st0" d="M17.6,16l-3.4-3.4c1-1.3,1.5-2.9,1.5-4.6c0-4.3-3.4-7.7-7.7-7.7S0.3,3.7,0.3,8s3.4,7.7,7.7,7.7
	c1.7,0,3.3-0.6,4.6-1.5l3.4,3.4c0.2,0.2,0.4,0.3,0.8,0.3c0.6,0,1.1-0.5,1.1-1.1C17.9,16.6,17.8,16.3,17.6,16z M2.5,8
	C2.5,5,5,2.5,8,2.5S13.5,5,13.5,8S11,13.5,8,13.5S2.5,11,2.5,8z"/>
</svg>
