<?xml version="1.0" encoding="utf-8"?>
<!-- Generator: Adobe Illustrator 23.0.1, SVG Export Plug-In . SVG Version: 6.00 Build 0)  -->
<svg version="1.1" id="Laag_1" xmlns="http://www.w3.org/2000/svg" xmlns:xlink="http://www.w3.org/1999/xlink" x="0px" y="0px"
	 width="102px" height="78px" viewBox="0 0 102 78" style="enable-background:new 0 0 102 78;" xml:space="preserve">
<style type="text/css">
	.st0{fill:#63D1BB;}
	.st1{fill:#FFFFFF;}
</style>
<g>
	<g>
		<path class="st0" d="M97.7,18.6c0,0-0.9-7-3.8-10.1c-3.6-4-7.7-4.1-9.5-4.3C71,3.2,51,3.2,51,3.2H51c0,0-20,0-33.3,1
			c-1.9,0.3-5.9,0.3-9.6,4.4c-2.8,3.1-3.8,10.1-3.8,10.1S3.4,27,3.4,35.1v7.7c0,8.2,0.9,16.4,0.9,16.4s0.9,7,3.8,10.1
			c3.6,4,8.4,3.9,10.5,4.3c7.6,0.8,32.4,1,32.4,1s20,0,33.3-1c1.9-0.2,5.9-0.3,9.5-4.3c2.9-3.1,3.9-10.1,3.9-10.1s0.9-8.2,0.9-16.4
			v-7.7C98.6,26.9,97.7,18.6,97.7,18.6z"/>
		<path class="st1" d="M51,77.4L51,77.4c-1,0-25-0.3-32.6-1h-0.1h-0.1c-0.3-0.1-0.7-0.1-1.1-0.2c-2.5-0.3-7.2-0.9-10.8-5
			c-3.5-3.7-4.5-10.8-4.6-11.7l0,0c0-0.3-1-8.5-1-16.7v-7.7c0-8.3,0.9-16.4,0.9-16.7v-0.1c0.1-0.8,1.2-7.9,4.5-11.6
			c4-4.4,8.5-4.9,10.7-5.1c0.2,0,0.4,0,0.5-0.1h0.1c13.3-1,33.4-1,33.6-1H51c0.2,0,20.2,0,33.5,1h0.1c0.2,0,0.3,0,0.5,0.1
			c2.2,0.2,6.7,0.7,10.7,5.1c3.4,3.6,4.4,10.8,4.5,11.6l0,0c0,0.3,1,8.5,1,16.8v7.7c0,8.3-0.9,16.4-1,16.7v0.1
			c-0.1,0.8-1.2,8-4.5,11.6c-4,4.4-8.5,4.9-10.7,5.1c-0.2,0-0.4,0-0.5,0.1h-0.1C71.3,77.4,51.2,77.4,51,77.4L51,77.4L51,77.4z
			 M19.1,70.9c7.5,0.7,31.2,1,32,1c0.7,0,20.1,0,33-1c0.2,0,0.4,0,0.6-0.1c1.8-0.2,4.6-0.5,7.2-3.3l0,0c1.8-2,2.9-6.9,3.1-8.6
			c0.1-0.5,0.9-8.4,0.9-16.1v-7.7c0-7.8-0.9-15.6-1-16.1c-0.3-2.4-1.4-6.8-3.1-8.5l0,0c-2.6-2.9-5.4-3.1-7.2-3.3
			c-0.2,0-0.4,0-0.6-0.1c-13.1-1-32.8-1-33-1h-0.1c-0.2,0-20,0-33,1c-0.2,0-0.4,0-0.6,0.1c-1.8,0.1-4.5,0.3-7.1,3.2l0,0
			c-1.8,2-2.9,6.9-3.1,8.6C7,19.6,6.2,27.4,6.2,35.1v7.7c0,7.7,0.9,15.6,0.9,16.1c0.3,2.4,1.4,6.8,3.1,8.5l0,0
			c2.3,2.6,5.3,3,7.5,3.3C18.2,70.9,18.6,70.9,19.1,70.9z"/>
	</g>
</g>
<g>
	<polygon class="st1" points="39.1,21.1 39.1,56.8 68.8,39 	"/>
</g>
</svg>
